<?xml version="1.0" encoding="UTF-8"?>
<svg width="6px" height="10px" viewBox="0 0 6 10" version="1.1" xmlns="http://www.w3.org/2000/svg" xmlns:xlink="http://www.w3.org/1999/xlink">
    <!-- Generator: Sketch 47.1 (45422) - http://www.bohemiancoding.com/sketch -->
    <title>Chevron</title>
    <desc>Created with Sketch.</desc>
    <defs></defs>
    <g id="Symbols" stroke="none" stroke-width="1" fill="none" fill-rule="evenodd">
        <g id="UI-/-Button-Secondary-(Tel)" transform="translate(-236.000000, -18.000000)" fill="#DA262D">
            <g id="Content">
                <g transform="translate(49.000000, 14.000000)">
                    <path d="M193,9 C193,8.91983968 192.958763,8.82965932 192.896907,8.76953908 L188.092784,4.1002004 C188.030928,4.04008016 187.938144,4 187.85567,4 C187.773196,4 187.680412,4.04008016 187.618557,4.1002004 L187.103093,4.6012024 C187.041237,4.66132265 187,4.75150301 187,4.83166333 C187,4.91182365 187.041237,5.00200401 187.103093,5.06212425 L191.154639,9 L187.103093,12.9378758 C187.041237,12.997996 187,13.0881764 187,13.1683367 C187,13.258517 187.041237,13.3386774 187.103093,13.3987976 L187.618557,13.8997996 C187.680412,13.9599198 187.773196,14 187.85567,14 C187.938144,14 188.030928,13.9599198 188.092784,13.8997996 L192.896907,9.23046092 C192.958763,9.17034068 193,9.08016032 193,9 Z" id="Chevron"></path>
                </g>
            </g>
        </g>
    </g>
</svg>