<?xml version="1.0" encoding="UTF-8"?>
<svg width="24px" height="24px" viewBox="0 0 24 24" version="1.1" xmlns="http://www.w3.org/2000/svg" xmlns:xlink="http://www.w3.org/1999/xlink">
    <!-- Generator: Sketch 47.1 (45422) - http://www.bohemiancoding.com/sketch -->
    <title>Icon / Red / Bundles</title>
    <desc>Created with Sketch.</desc>
    <defs></defs>
    <g id="Symbols" stroke="none" stroke-width="1" fill="none" fill-rule="evenodd">
        <g id="Mobile-/-Mast-Full" transform="translate(-214.000000, -58.000000)" fill="#DA262D">
            <g id="Icon-/-Red-/-Bundles" transform="translate(214.000000, 58.000000)">
                <path d="M12,24 C5.372583,24 0,18.627417 0,12 C0,5.372583 5.372583,0 12,0 C18.627417,0 24,5.372583 24,12 C24,18.627417 18.627417,24 12,24 Z M19.0769231,13.1570462 C19.0769231,12.9146514 18.9771135,12.6793859 18.8131405,12.5082837 L13.7157208,7.41799328 C13.3521287,7.0544011 12.6605906,6.76923077 12.1544133,6.76923077 L10.5574594,6.76923077 C11.0636367,6.76923077 11.7551748,7.0544011 12.118767,7.41799328 L17.2161867,12.5082837 C17.3801596,12.6793859 17.4799692,12.9146514 17.4799692,13.1570462 C17.4799692,13.399441 17.3801596,13.6347065 17.2161867,13.7986795 L13.8654352,17.1494309 C14.10783,17.3989549 14.2931907,17.5700571 14.6639122,17.5700571 C14.906307,17.5700571 15.1415725,17.4702475 15.3126747,17.3062746 L18.8131405,13.7986795 C18.9771135,13.6347065 19.0769231,13.399441 19.0769231,13.1570462 Z M16.3392879,13.1570462 C16.3392879,12.9146514 16.2394783,12.6793859 16.0755053,12.5082837 L10.9780856,7.41799328 C10.6144935,7.0544011 9.9229554,6.76923077 9.41677806,6.76923077 L6.4510066,6.76923077 C5.95195852,6.76923077 5.53846154,7.18272775 5.53846154,7.68177583 L5.53846154,10.6475473 C5.53846154,11.1537246 5.82363187,11.8452627 6.18722405,12.2017256 L11.2846437,17.3062746 C11.4486167,17.4702475 11.6838822,17.5700571 11.926277,17.5700571 C12.1686718,17.5700571 12.4039373,17.4702475 12.5750395,17.3062746 L16.0755053,13.7986795 C16.2394783,13.6347065 16.3392879,13.399441 16.3392879,13.1570462 Z M8.73236926,9.05059343 C8.73236926,9.55677077 8.32600154,9.96313849 7.8198242,9.96313849 C7.31364686,9.96313849 6.90727913,9.55677077 6.90727913,9.05059343 C6.90727913,8.54441609 7.31364686,8.13804837 7.8198242,8.13804837 C8.32600154,8.13804837 8.73236926,8.54441609 8.73236926,9.05059343 Z"></path>
            </g>
        </g>
    </g>
</svg>