<?xml version="1.0" encoding="UTF-8"?>
<svg width="14px" height="13px" viewBox="0 0 14 13" version="1.1" xmlns="http://www.w3.org/2000/svg" xmlns:xlink="http://www.w3.org/1999/xlink">
    <!-- Generator: Sketch 47.1 (45422) - http://www.bohemiancoding.com/sketch -->
    <title>Icon / White / Tel</title>
    <desc>Created with Sketch.</desc>
    <defs></defs>
    <g id="Symbols" stroke="none" stroke-width="1" fill="none" fill-rule="evenodd">
        <g id="UI-/-Button-Secondary-(Cart)" transform="translate(-65.000000, -16.000000)" fill="#DA262D">
            <g id="Group" transform="translate(64.000000, 14.000000)">
                <g id="Icon-/-Red-/-Cart" transform="translate(0.000000, 1.000000)">
                    <path d="M6.38461538,12.1360947 C6.38461538,12.4277628 6.27804594,12.6801641 6.06490385,12.8933062 C5.85176175,13.1064483 5.59936043,13.2130178 5.30769231,13.2130178 C5.01602418,13.2130178 4.76362286,13.1064483 4.55048077,12.8933062 C4.33733868,12.6801641 4.23076923,12.4277628 4.23076923,12.1360947 C4.23076923,11.8444265 4.33733868,11.5920252 4.55048077,11.3788831 C4.76362286,11.165741 5.01602418,11.0591716 5.30769231,11.0591716 C5.59936043,11.0591716 5.85176175,11.165741 6.06490385,11.3788831 C6.27804594,11.5920252 6.38461538,11.8444265 6.38461538,12.1360947 Z M13.9230769,12.1360947 C13.9230769,12.4277628 13.8165075,12.6801641 13.6033654,12.8933062 C13.3902233,13.1064483 13.137822,13.2130178 12.8461538,13.2130178 C12.5544857,13.2130178 12.3020844,13.1064483 12.0889423,12.8933062 C11.8758002,12.6801641 11.7692308,12.4277628 11.7692308,12.1360947 C11.7692308,11.8444265 11.8758002,11.5920252 12.0889423,11.3788831 C12.3020844,11.165741 12.5544857,11.0591716 12.8461538,11.0591716 C13.137822,11.0591716 13.3902233,11.165741 13.6033654,11.3788831 C13.8165075,11.5920252 13.9230769,11.8444265 13.9230769,12.1360947 Z M15,2.98224852 L15,7.28994083 C15,7.42455689 14.9537264,7.5437464 14.8611779,7.64751294 C14.7686293,7.75127949 14.6550487,7.81157536 14.5204327,7.82840237 L5.73677885,8.85484467 C5.80969588,9.19138482 5.84615385,9.38769696 5.84615385,9.44378698 C5.84615385,9.53353102 5.77884683,9.71301641 5.64423077,9.98224852 L13.3846154,9.98224852 C13.5304494,9.98224852 13.6566501,10.0355332 13.7632212,10.1421043 C13.8697922,10.2486753 13.9230769,10.374876 13.9230769,10.5207101 C13.9230769,10.6665441 13.8697922,10.7927448 13.7632212,10.8993158 C13.6566501,11.0058869 13.5304494,11.0591716 13.3846154,11.0591716 L4.76923077,11.0591716 C4.62339671,11.0591716 4.49719605,11.0058869 4.390625,10.8993158 C4.28405395,10.7927448 4.23076923,10.6665441 4.23076923,10.5207101 C4.23076923,10.459011 4.2532049,10.3706706 4.29807692,10.255686 C4.34294894,10.1407015 4.38782029,10.0397409 4.43269231,9.95280141 C4.47756433,9.86586187 4.5378602,9.7536835 4.61358173,9.61626294 C4.68930326,9.47884238 4.73277238,9.39611084 4.74399038,9.36806583 L3.25480769,2.44378698 L1.53846154,2.44378698 C1.39262748,2.44378698 1.26642681,2.39050226 1.15985577,2.28393121 C1.05328472,2.17736017 1,2.05115951 1,1.90532544 C1,1.75949138 1.05328472,1.63329072 1.15985577,1.52671967 C1.26642681,1.42014863 1.39262748,1.36686391 1.53846154,1.36686391 L3.69230769,1.36686391 C3.78205173,1.36686391 3.86197882,1.38509289 3.93209135,1.42155141 C4.00220388,1.45800992 4.05689083,1.50147904 4.09615385,1.55196006 C4.13541686,1.60244108 4.17187483,1.67115033 4.20552885,1.75808987 C4.23918286,1.8450294 4.26161853,1.91794534 4.27283654,1.97683987 C4.28405454,2.03573439 4.29947907,2.11846594 4.31911058,2.22503698 C4.33874209,2.33160803 4.35136215,2.40452397 4.35697115,2.44378698 L14.4615385,2.44378698 C14.6073725,2.44378698 14.7335732,2.49707171 14.8401442,2.60364275 C14.9467153,2.7102138 15,2.83641446 15,2.98224852 Z" id="Cart"></path>
                </g>
            </g>
        </g>
    </g>
</svg>