<?xml version="1.0" encoding="UTF-8"?>
<svg width="9px" height="5px" viewBox="0 0 9 5" version="1.1" xmlns="http://www.w3.org/2000/svg" xmlns:xlink="http://www.w3.org/1999/xlink">
    <!-- Generator: Sketch 47.1 (45422) - http://www.bohemiancoding.com/sketch -->
    <title>Chevron</title>
    <desc>Created with Sketch.</desc>
    <defs></defs>
    <g id="Symbols" stroke="none" stroke-width="1" fill="none" fill-rule="evenodd">
        <g id="Tablet-/-Mast" transform="translate(-548.000000, -18.000000)" fill="#DA262D">
            <g id="Tablet/Masthead-Top-Legacy">
                <g>
                    <path d="M554.43292,20.4503997 C554.43292,20.3859155 554.400678,20.3133708 554.352315,20.2650077 L550.59611,16.5088028 C550.547747,16.4604396 550.475202,16.4281975 550.410718,16.4281975 C550.346234,16.4281975 550.273689,16.4604396 550.225326,16.5088028 L549.822299,16.9118291 C549.773936,16.9601922 549.741694,17.0327369 549.741694,17.0972211 C549.741694,17.1617053 549.773936,17.2342501 549.822299,17.2826132 L552.990086,20.4503997 L549.822299,23.6181863 C549.773936,23.6665494 549.741694,23.7390941 549.741694,23.8035783 C549.741694,23.8761231 549.773936,23.9406073 549.822299,23.9889704 L550.225326,24.3919967 C550.273689,24.4403599 550.346234,24.472602 550.410718,24.472602 C550.475202,24.472602 550.547747,24.4403599 550.59611,24.3919967 L554.352315,20.6357918 C554.400678,20.5874287 554.43292,20.514884 554.43292,20.4503997 Z" id="Chevron" transform="translate(552.087307, 20.450400) rotate(-270.000000) translate(-552.087307, -20.450400) "></path>
                </g>
            </g>
        </g>
    </g>
</svg>