<?xml version="1.0" encoding="UTF-8"?>
<svg width="15px" height="15px" viewBox="0 0 15 15" version="1.1" xmlns="http://www.w3.org/2000/svg" xmlns:xlink="http://www.w3.org/1999/xlink">
    <!-- Generator: Sketch 47.1 (45422) - http://www.bohemiancoding.com/sketch -->
    <title>globe</title>
    <desc>Created with Sketch.</desc>
    <defs></defs>
    <g id="Symbols" stroke="none" stroke-width="1" fill="none" fill-rule="evenodd">
        <g id="Tablet-/-Mast" transform="translate(-578.000000, -13.000000)" fill="#DA262D">
            <g id="Tablet/Masthead-Top-Legacy">
                <g>
                    <path d="M585.5,13 C581.359375,13 578,16.359375 578,20.5 C578,24.640625 581.359375,28 585.5,28 C589.640625,28 593,24.640625 593,20.5 C593,16.359375 589.640625,13 585.5,13 Z M588.175781,18.0878906 C588.283203,18.0195312 588.458984,17.9316406 588.595703,17.9707031 C588.703125,18 588.791016,18.0390625 588.664062,18.1269531 C588.605469,18.1660156 588.517578,18.1269531 588.449219,18.1464844 C588.537109,18.1660156 588.664062,18.2050781 588.625,18.2929688 C588.878906,18.4394531 588.546875,18.6152344 588.380859,18.5957031 C588.458984,18.6054688 588.214844,18.7519531 588.214844,18.7421875 C588.126953,18.7910156 588.009766,18.7910156 587.941406,18.8789062 C587.863281,18.9863281 587.970703,19.171875 587.824219,19.1328125 C587.765625,19.2597656 587.541016,19.1914062 587.443359,19.328125 C587.550781,19.4453125 587.335938,19.6113281 587.228516,19.4648438 C587.130859,19.5039062 587.179688,19.6113281 587.082031,19.6699219 C587.121094,19.7285156 587.130859,19.7871094 587.0625,19.8261719 C587.082031,19.8164062 587.199219,19.9140625 587.228516,19.9238281 C587.208984,19.9726562 587.169922,20.0117188 587.121094,20.0117188 C587.169922,20.1386719 587.0625,20.2753906 586.974609,20.3535156 C586.876953,20.4316406 586.652344,20.5097656 586.623047,20.5292969 C586.447266,20.6953125 586.330078,20.9394531 586.642578,21.0078125 C586.652344,21.0078125 586.652344,21.3300781 586.662109,21.3398438 C586.681641,21.4570312 586.730469,21.7988281 586.525391,21.671875 C586.427734,21.6230469 586.369141,21.3496094 586.339844,21.2421875 C586.310547,21.125 586.300781,21.125 586.222656,21.0078125 C586.095703,21.1542969 586.076172,21.046875 585.96875,20.9785156 C585.861328,20.9199219 585.705078,20.9394531 585.646484,20.8808594 C585.5,20.9882812 585.392578,20.9589844 585.363281,20.7929688 C585.324219,20.8710938 585.402344,20.9882812 585.392578,21.0175781 C585.34375,21.1152344 585.255859,21.0957031 585.177734,21.0371094 C585.050781,20.9394531 584.777344,21.1054688 584.630859,21.0371094 C584.640625,21.0371094 584.679688,21.0761719 584.708984,21.0957031 C584.679688,21.2128906 584.611328,21.1445312 584.552734,21.1835938 C584.484375,21.2324219 584.425781,21.3300781 584.367188,21.3789062 C584.494141,21.6230469 584.357422,21.8574219 584.367188,22.1210938 C584.367188,22.3164062 584.494141,22.6582031 584.679688,22.765625 C584.767578,22.8144531 585.060547,22.8339844 585.148438,22.7949219 C585.285156,22.7363281 585.265625,22.6289062 585.314453,22.5117188 C585.363281,22.3847656 585.421875,22.3261719 585.568359,22.3164062 C585.988281,22.296875 585.666016,22.6386719 585.617188,22.8144531 C585.587891,22.9414062 585.578125,23.0878906 585.558594,23.2050781 C585.607422,23.2246094 585.65625,23.2148438 585.705078,23.2148438 C585.705078,23.1757812 585.734375,23.1269531 585.734375,23.0976562 C585.792969,23.1953125 585.988281,23.2246094 586.046875,23.1074219 C586.115234,23.2246094 586.251953,23.3125 586.271484,23.4492188 C586.291016,23.5859375 586.417969,23.7324219 586.232422,23.7324219 C586.095703,23.7324219 586.251953,24.0058594 586.271484,24.0546875 C586.378906,24.25 586.554688,24.328125 586.75,24.2304688 C586.75,24.3085938 586.720703,24.5234375 586.613281,24.5429688 C586.515625,24.5625 586.330078,24.3574219 586.369141,24.25 C586.359375,24.2890625 586.330078,24.3183594 586.300781,24.3378906 C586.203125,24.2207031 586.037109,24.1621094 585.949219,24.0449219 C585.929688,24.015625 585.666016,23.6152344 585.724609,23.5957031 C585.587891,23.6542969 585.314453,23.5566406 585.1875,23.4882812 C584.982422,23.3808594 584.953125,23.0976562 584.699219,23.1367188 C584.523438,23.1660156 584.474609,23.234375 584.269531,23.15625 C584.132812,23.1074219 584.015625,23.0097656 583.878906,22.9414062 C583.722656,22.8535156 583.449219,22.765625 583.390625,22.5703125 C583.332031,22.4140625 583.351562,22.2285156 583.263672,22.0820312 C583.205078,21.984375 583.029297,21.7890625 582.902344,21.7890625 C583.019531,21.7890625 582.794922,21.4960938 582.765625,21.4667969 C582.658203,21.3398438 582.267578,20.9980469 582.345703,20.8027344 C582.365234,20.7734375 582.150391,20.6953125 582.111328,20.6855469 C582.150391,20.7832031 582.160156,20.890625 582.208984,20.9785156 C582.257812,21.0761719 582.316406,21.1640625 582.375,21.2617188 C582.482422,21.4375 582.628906,21.6523438 582.609375,21.8671875 C582.482422,21.90625 582.521484,21.7207031 582.482422,21.6425781 C582.414062,21.515625 582.228516,21.515625 582.179688,21.3789062 C582.199219,21.3691406 582.208984,21.3691406 582.228516,21.359375 C582.238281,21.1933594 581.994141,21.0566406 582.033203,20.9394531 C581.896484,20.8320312 581.896484,20.6269531 581.798828,20.4902344 C581.710938,20.3632812 581.564453,20.3046875 581.4375,20.2167969 C581.388672,20.1875 581.037109,19.7382812 581.164062,19.7089844 C580.96875,19.7578125 580.871094,19.2988281 580.900391,19.1816406 C580.900391,19.1816406 580.880859,19.1816406 580.880859,19.171875 C580.919922,19.0546875 580.851562,18.4492188 581.007812,18.4394531 C580.900391,18.4492188 580.871094,18.1855469 580.900391,18.1367188 C580.919922,18.0976562 581.066406,18.2441406 581.076172,18.2636719 C581.134766,18.234375 581.193359,18.15625 581.173828,18.0878906 C581.144531,18.0097656 581.037109,17.9414062 580.96875,17.8828125 C580.939453,17.8632812 580.548828,17.609375 580.539062,17.6191406 C580.578125,17.5507812 580.568359,17.4824219 580.509766,17.4335938 C580.324219,17.5800781 580.421875,17.296875 580.324219,17.2675781 C580.285156,17.2578125 580.246094,17.2285156 580.207031,17.1894531 C580.773438,16.2910156 581.564453,15.5390625 582.501953,15.0214844 C582.560547,15.0117188 582.638672,15.0117188 582.716797,15.0117188 C582.892578,15.03125 582.990234,15.1777344 583.117188,15.265625 C583.136719,15.2167969 583.097656,15.1386719 583.068359,15.0898438 C583.097656,15.0117188 583.214844,14.9921875 583.283203,14.9726562 C583.371094,14.9628906 583.498047,14.9433594 583.576172,14.9824219 C583.517578,14.8945312 583.449219,14.8164062 583.380859,14.7382812 C583.371094,14.7480469 583.341797,14.7675781 583.332031,14.7871094 C583.224609,14.6992188 583.019531,14.8164062 582.921875,14.8554688 C582.84375,14.8945312 582.775391,14.9433594 582.697266,14.9726562 C582.648438,14.9921875 582.619141,14.9921875 582.580078,14.9824219 C582.873047,14.8261719 583.175781,14.6894531 583.498047,14.5820312 C583.556641,14.6210938 583.615234,14.6894531 583.703125,14.7578125 C583.644531,14.7089844 583.644531,14.9335938 583.664062,14.9726562 C583.771484,15.1191406 584.005859,15.0214844 584.152344,15.0214844 C584.142578,15.0214844 584.582031,15.0800781 584.494141,14.9726562 C584.5625,15.0703125 584.5625,15.2167969 584.650391,15.3046875 C584.738281,15.2167969 584.611328,15.1191406 584.669922,15.03125 C584.689453,14.9921875 584.865234,14.9433594 584.923828,14.9140625 C584.992188,14.8652344 584.875,14.796875 584.845703,14.7773438 C584.748047,14.71875 584.367188,14.6894531 584.552734,14.4648438 C584.621094,14.3867188 584.865234,14.4257812 584.943359,14.4746094 C585.050781,14.5332031 585.167969,14.640625 585.021484,14.7382812 C585.089844,14.7480469 585.412109,14.8359375 585.363281,14.9628906 C585.392578,14.9042969 585.441406,14.8164062 585.519531,14.8164062 C585.607422,14.8261719 585.626953,15.03125 585.666016,15.0800781 C585.802734,15.3242188 586.037109,14.8359375 586.076172,14.8554688 C585.900391,14.7871094 586.232422,14.6992188 586.320312,14.7285156 C586.388672,14.7578125 586.496094,14.9921875 586.369141,14.9824219 C586.476562,15.0800781 586.486328,15.2949219 586.291016,15.2851562 C586.154297,15.2753906 585.998047,15.0898438 585.871094,15.2363281 C585.783203,15.3339844 585.744141,15.4804688 585.65625,15.5683594 C585.519531,15.7050781 585.333984,15.6953125 585.167969,15.6757812 C585.236328,15.6855469 585.021484,15.9101562 585.001953,15.9492188 C584.943359,16.0175781 584.904297,16.0957031 584.884766,16.1738281 C584.865234,16.2714844 584.884766,16.3789062 584.835938,16.4765625 C585.001953,16.4277344 585.089844,16.7304688 585.021484,16.7402344 C585.226562,16.7109375 585.392578,16.7109375 585.587891,16.7792969 C585.724609,16.828125 585.929688,16.8867188 585.988281,17.0332031 C586.027344,16.9746094 586.212891,17.0039062 586.271484,17.0234375 C586.388672,17.0820312 586.398438,17.2089844 586.427734,17.3164062 C586.466797,17.4628906 586.59375,17.7070312 586.759766,17.6289062 C586.789062,17.609375 587.003906,17.5117188 586.925781,17.453125 C586.847656,17.3847656 586.759766,17.2089844 586.837891,17.1113281 C586.916016,17.0039062 587.101562,16.9746094 587.150391,16.8378906 C587.228516,16.6132812 586.916016,16.6425781 586.916016,16.4765625 C586.916016,16.3789062 587.042969,16.3496094 587.033203,16.2324219 C587.033203,16.1347656 586.886719,15.9394531 587.003906,15.8710938 C587.101562,15.8125 587.570312,15.9101562 587.658203,15.96875 C587.746094,16.0273438 588.019531,16.1054688 588.039062,16.1933594 L587.990234,16.1933594 C588.068359,16.2617188 588.136719,16.4082031 588,16.4472656 C588.087891,16.4277344 588.341797,16.5253906 588.166016,16.5839844 C588.224609,16.5546875 588.273438,16.5742188 588.332031,16.5351562 C588.400391,16.4960938 588.439453,16.4277344 588.527344,16.4765625 C588.546875,16.4863281 588.654297,16.2714844 588.712891,16.28125 C588.800781,16.2910156 588.820312,16.4179688 588.859375,16.4765625 C588.898438,16.5644531 589.005859,16.59375 589.044922,16.6816406 C589.113281,16.8476562 589.083984,17.0039062 589.308594,17.0625 C589.376953,17.0820312 589.5625,16.9746094 589.552734,17.1210938 C589.591797,17.0820312 589.611328,17.0527344 589.611328,17.0429688 C589.621094,17.1796875 589.679688,17.3359375 589.845703,17.3164062 C589.845703,17.3164062 589.845703,17.5019531 589.826172,17.53125 C589.767578,17.6191406 589.621094,17.5996094 589.533203,17.6484375 C589.503906,17.6582031 589.269531,17.8632812 589.298828,17.8925781 C589.171875,17.7460938 588.966797,17.7460938 588.800781,17.7851562 C588.625,17.8144531 588.458984,17.8339844 588.292969,17.9023438 C588.214844,17.9414062 588.136719,17.9804688 588.078125,18.0488281 C588.048828,18.0878906 588,18.2636719 587.951172,18.2734375 C588.048828,18.2539062 588.097656,18.1464844 588.175781,18.0878906 Z M586.583984,26.6523437 C586.574219,26.6035156 586.564453,26.5058594 586.564453,26.4960937 C586.554688,26.3398437 586.720703,26.2324219 586.710938,26.0859375 C586.603516,26.0566406 586.574219,25.9492187 586.59375,25.8320312 C586.613281,25.6660156 586.759766,25.5488281 586.876953,25.4414062 C586.994141,25.3339844 587.023438,25.109375 586.994141,24.9726562 C586.945312,24.7382812 586.945312,24.4941406 586.90625,24.2597656 C586.916016,24.3183594 587.082031,24.2988281 587.111328,24.3769531 C587.150391,24.3085937 587.169922,24.2207031 587.21875,24.1523437 C587.257812,24.09375 587.326172,24.0742187 587.384766,24.0253906 C587.482422,23.9667969 587.6875,23.7421875 587.804688,23.8789062 C587.902344,23.9960937 587.658203,24.1230469 587.785156,24.2304687 C587.824219,24.1523437 587.785156,24.0351562 587.863281,23.9570312 C588.019531,23.78125 588.126953,23.9765625 588.283203,24.0253906 C588.449219,24.0742187 588.507812,24.1328125 588.634766,24.2402344 C588.595703,24.2011719 588.791016,24.1328125 588.810547,24.1230469 C588.996094,24.0839844 589.074219,24.1914062 589.201172,24.2890625 C589.337891,24.3867187 589.552734,24.4550781 589.533203,24.6503906 C589.630859,24.6699219 589.689453,24.6992187 589.767578,24.7285156 C589.845703,24.7675781 589.953125,24.7480469 590.011719,24.8066406 C589.113281,25.7539062 587.921875,26.4179687 586.583984,26.6523437 Z" id="globe"></path>
                </g>
            </g>
        </g>
    </g>
</svg>