<?xml version="1.0" encoding="UTF-8"?>
<svg width="24px" height="24px" viewBox="0 0 24 24" version="1.1" xmlns="http://www.w3.org/2000/svg" xmlns:xlink="http://www.w3.org/1999/xlink">
    <!-- Generator: Sketch 47.1 (45422) - http://www.bohemiancoding.com/sketch -->
    <title>Icon / Red / Internet</title>
    <desc>Created with Sketch.</desc>
    <defs></defs>
    <g id="Symbols" stroke="none" stroke-width="1" fill="none" fill-rule="evenodd">
        <g id="Mobile-/-Mast-Full" transform="translate(-16.000000, -58.000000)" fill="#DA262D">
            <g id="Icon-/-Red-/-Internet" transform="translate(16.000000, 58.000000)">
                <path d="M12,24 C5.372583,24 0,18.627417 0,12 C0,5.372583 5.372583,0 12,0 C18.627417,0 24,5.372583 24,12 C24,18.627417 18.627417,24 12,24 Z M8.47179487,14.6051282 L16.1435897,14.6051282 C16.7641026,14.6051282 17.2717949,14.0974359 17.2717949,13.4769231 L17.2717949,8.51282051 C17.2717949,7.89230769 16.7641026,7.38461538 16.1435897,7.38461538 L8.47179487,7.38461538 C7.85128205,7.38461538 7.34358974,7.89230769 7.34358974,8.51282051 L7.34358974,13.4769231 C7.34358974,14.0974359 7.85128205,14.6051282 8.47179487,14.6051282 Z M17.9487179,15.0564103 L6.66666667,15.0564103 L5.53846154,15.0564103 L5.53846154,15.7333333 C5.53846154,16.1070513 6.04615385,16.4102564 6.66666667,16.4102564 L17.9487179,16.4102564 C18.5692308,16.4102564 19.0769231,16.1070513 19.0769231,15.7333333 L19.0769231,15.0564103 L17.9487179,15.0564103 Z M12.8717949,15.7333333 L11.7435897,15.7333333 C11.6801282,15.7333333 11.6307692,15.6839744 11.6307692,15.6205128 C11.6307692,15.5570513 11.6801282,15.5076923 11.7435897,15.5076923 L12.8717949,15.5076923 C12.9352564,15.5076923 12.9846154,15.5570513 12.9846154,15.6205128 C12.9846154,15.6839744 12.9352564,15.7333333 12.8717949,15.7333333 Z M8.24615385,8.51282051 C8.24615385,8.39294872 8.35192308,8.28717949 8.47179487,8.28717949 L16.1435897,8.28717949 C16.2634615,8.28717949 16.3692308,8.39294872 16.3692308,8.51282051 L16.3692308,13.4769231 C16.3692308,13.5967949 16.2634615,13.7025641 16.1435897,13.7025641 L8.47179487,13.7025641 C8.35192308,13.7025641 8.24615385,13.5967949 8.24615385,13.4769231 L8.24615385,8.51282051 Z"></path>
            </g>
        </g>
    </g>
</svg>