<?xml version="1.0" encoding="UTF-8"?>
<svg width="65px" height="20px" viewBox="0 0 65 20" version="1.1" xmlns="http://www.w3.org/2000/svg" xmlns:xlink="http://www.w3.org/1999/xlink">
    <!-- Generator: Sketch 47.1 (45422) - http://www.bohemiancoding.com/sketch -->
    <title>Logo / Frontier</title>
    <desc>Created with Sketch.</desc>
    <defs></defs>
    <g id="Symbols" stroke="none" stroke-width="1" fill="none" fill-rule="evenodd">
        <g id="Mobile-/-Mast-Full" transform="translate(-16.000000, -10.000000)" fill="#DA262D">
            <g id="Top">
                <g id="Logo-/-Frontier" transform="translate(16.000000, 10.000000)">
                    <path d="M0.531372444,6.30041026 L9.51931287,6.30041026 L9.51931287,8.51293337 L3.06059713,8.51293337 L3.06059713,11.850757 L9.16919484,11.850757 L9.16919484,13.98579 L3.06059713,13.98579 L3.06059713,19.5556376 L0.531372444,19.5556376 L0.531372444,6.30041026 Z M16.3277557,12.72423 C15.9969801,12.6077382 15.7246432,12.5300428 15.3744222,12.5300428 C13.9541962,12.5300428 12.8064099,13.9468294 12.8064099,15.9846661 L12.8064099,19.5556786 L10.3940627,19.5556786 L10.3940627,10.5312077 L12.7869646,10.5312077 L12.7869646,12.0061889 L12.8258552,12.0061889 C13.3706318,10.9388777 14.1488548,10.3178276 15.3160864,10.3178276 C15.7440885,10.3178276 16.0358706,10.4148185 16.3277557,10.5312077 L16.3277557,12.72423 Z M63.3462001,12.72423 C63.0153216,12.6077382 62.7429847,12.5300428 62.3928666,12.5300428 C60.9726406,12.5300428 59.8247514,13.9468294 59.8247514,15.9846661 L59.8247514,19.5556786 L57.4124042,19.5556786 L57.4124042,10.5312077 L59.8055119,10.5312077 L59.8055119,12.0061889 L59.8442995,12.0061889 C60.3890762,10.9388777 61.1672992,10.3178276 62.3344279,10.3178276 C62.7624299,10.3178276 63.0544179,10.4148185 63.3462001,10.5312077 L63.3462001,12.72423 Z M26.4242523,15.0531423 C26.4242523,17.4209536 24.5372365,19.7691614 21.4244475,19.7691614 C18.3895424,19.7691614 16.4829785,17.5566383 16.4829785,15.0724378 C16.4829785,12.2391725 18.8563322,10.3178276 21.327221,10.3178276 C24.6733535,10.3178276 26.4242523,12.7438334 26.4242523,15.0531423 Z M35.6644773,19.5556376 L33.2520272,19.5556376 L33.2520272,14.3156619 C33.2520272,13.3840354 32.9797932,12.6464935 31.9291305,12.6464935 C30.4702196,12.6464935 29.6141126,14.160579 29.6141126,15.8877367 L29.6141126,19.5556376 L27.2017654,19.5556376 L27.2017654,10.5312693 L29.6122607,10.5312693 L29.6141126,11.9479533 C30.0032241,11.3656995 30.7231112,10.3177865 32.4739072,10.3177865 C34.6529109,10.3177865 35.6644773,11.8120633 35.6644773,13.675111 L35.6644773,19.5556376 Z M43.7562884,19.5556376 L43.7562884,10.5312693 L46.1686357,10.5312693 L46.1686357,19.5556376 L43.7562884,19.5556376 Z M56.2263343,15.3635749 L49.5339665,15.3635749 C49.6702893,15.8099387 49.7870639,16.1398106 50.0981884,16.528185 C50.6818557,17.2267253 51.5378598,17.5565972 52.2965346,17.5565972 C53.6195343,17.5565972 54.8256564,16.8772499 55.8761134,16.0624231 L55.8761134,18.5270201 C55.0786509,18.9541909 53.5805408,19.7691203 51.9074231,19.7691203 C49.0281833,19.7691203 47.0241871,17.5760981 47.0241871,15.0723968 C47.0241871,12.5495025 49.0475257,10.3177865 51.7323127,10.3177865 C54.4560931,10.3177865 56.2263343,12.258427 56.2263343,14.9949066 L56.2263343,15.3635749 Z M39.9354132,7.83363736 L39.9354132,10.5507188 L42.464535,10.5507188 L42.464535,12.3556746 L40.0132972,12.3556746 L40.0132972,16.2952528 C40.0132972,17.304472 40.557971,17.5566486 41.1806317,17.5566486 C41.6669696,17.5566486 42.0949717,17.4013604 42.464535,17.2461748 L42.464535,19.3808999 C41.7447508,19.5751897 41.0053155,19.6916815 40.2661888,19.6916815 C38.6320646,19.6916815 37.6008471,18.8569434 37.6008471,17.1101822 L37.6008471,12.3556746 L36.1028399,12.3556746 L36.1028399,10.5507188 L37.6022875,10.5507188 L37.6022875,7.82357903 L39.9354132,7.82357903 L39.9354132,7.83363736 Z M64.3618819,10.5213649 L64.5551001,10.78945 L64.7502732,10.5213649 L64.8810402,10.5213649 L64.8810402,11.1398491 L64.7463635,11.1398491 L64.752228,10.7332055 L64.5667261,10.9928745 L64.5376097,10.9928745 L64.3561203,10.7268421 L64.3618819,11.1398491 L64.2253533,11.1398491 L64.2253533,10.5213649 L64.3618819,10.5213649 Z M63.5949763,10.6489414 L63.5949763,10.5235203 L64.1395472,10.5235203 L64.1395472,10.6489414 L63.9344971,10.6489414 L63.9344971,11.1398491 L63.7998205,11.1398491 L63.7998205,10.6489414 L63.5949763,10.6489414 Z M42.1442331,5.07319224 C42.1442331,5.70696921 41.6294989,6.22097004 40.9941833,6.22097004 C40.3583533,6.22097004 39.8436191,5.70696921 39.8436191,5.07319224 C39.8436191,4.43972317 40.3583533,3.92561971 40.9941833,3.92561971 C41.6294989,3.92561971 42.1442331,4.43972317 42.1442331,5.07319224 Z M37.935481,2.86938291 C37.935481,3.40278193 37.502026,3.83559772 36.9666119,3.83559772 C36.4317122,3.83559772 35.9988745,3.40278193 35.9988745,2.86938291 C35.9988745,2.33588126 36.4317122,1.90306547 36.9666119,1.90306547 C37.502026,1.90306547 37.935481,2.33588126 37.935481,2.86938291 Z M33.9096071,1.47997957 C33.9096071,1.98022718 33.503211,2.38615235 33.0017489,2.38615235 C32.4997725,2.38615235 32.0940965,1.98022718 32.0940965,1.47997957 C32.0940965,0.979629326 32.4997725,0.574217334 33.0017489,0.574217334 C33.503211,0.574217334 33.9096071,0.979629326 33.9096071,1.47997957 Z M29.6105836,0.784733926 C29.6105836,1.21816553 29.2589223,1.56969365 28.8239241,1.56969365 C28.3893374,1.56969365 28.0371616,1.21816553 28.0371616,0.784733926 C28.0371616,0.351199684 28.3893374,8.21087579e-05 28.8239241,8.21087579e-05 C29.2589223,8.21087579e-05 29.6105836,0.351199684 29.6105836,0.784733926 Z M25.2509711,0.784733926 C25.2509711,1.15124689 24.9530158,1.44868587 24.5848929,1.44868587 C24.2172844,1.44868587 23.9198435,1.15124689 23.9198435,0.784733926 C23.9198435,0.418118322 24.2172844,0.120679347 24.5848929,0.120679347 C24.9530158,0.120679347 25.2509711,0.418118322 25.2509711,0.784733926 Z M21.0268582,1.32854023 C21.0268582,1.65317773 20.7633695,1.91664421 20.4377381,1.91664421 C20.1115923,1.91664421 19.8481035,1.65317773 19.8481035,1.32854023 C19.8481035,1.00359482 20.1115923,0.740436251 20.4377381,0.740436251 C20.7633695,0.740436251 21.0268582,1.00359482 21.0268582,1.32854023 Z M16.8797549,2.83865371 C16.8797549,3.06322116 16.6970309,3.24529733 16.4718154,3.24529733 C16.2465999,3.24529733 16.063876,3.06322116 16.063876,2.83865371 C16.063876,2.61367572 16.2465999,2.43159954 16.4718154,2.43159954 C16.6970309,2.43159954 16.8797549,2.61367572 16.8797549,2.83865371 Z M13.4567158,5.12115402 C13.4567158,5.26176526 13.3430277,5.37548589 13.202178,5.37548589 C13.0614312,5.37548589 12.9472287,5.26176526 12.9472287,5.12115402 C12.9472287,4.98054277 13.0614312,4.8667195 13.202178,4.8667195 C13.3430277,4.8667195 13.4567158,4.98054277 13.4567158,5.12115402 Z M11.4062464,7.65773987 C11.4062464,7.76273645 11.3207489,7.84833483 11.214983,7.84833483 C11.10932,7.84833483 11.0238224,7.76273645 11.0238224,7.65773987 C11.0238224,7.55243539 11.10932,7.46673437 11.214983,7.46673437 C11.3207489,7.46673437 11.4062464,7.55243539 11.4062464,7.65773987 Z M46.2139154,8.14600986 C46.2139154,8.84855292 45.6331289,9.41048473 44.9290861,9.41048473 C44.1896508,9.41048473 43.644154,8.81324616 43.644154,8.12856175 C43.644154,7.37357172 44.2777205,6.84674141 44.8763061,6.84674141 C45.3161399,6.84674141 46.2139154,7.21551237 46.2139154,8.14600986 Z M53.6195343,13.7139074 C53.4637662,12.6854952 52.5689744,12.1227423 51.7907514,12.1227423 C51.5962985,12.1227423 50.2537507,12.1809369 49.7479675,13.7139074 L53.6195343,13.7139074 Z M19.0704361,15.0337441 C19.0704361,16.6446153 20.2766612,17.6343337 21.5023315,17.6343337 C22.9030094,17.6343337 23.8367947,16.3145381 23.8367947,15.0724378 C23.8367947,13.7529501 22.8641188,12.4525526 21.5216739,12.4525526 C20.120996,12.4525526 19.0704361,13.5586602 19.0704361,15.0337441 Z"></path>
                </g>
            </g>
        </g>
    </g>
</svg>