<?xml version="1.0" encoding="UTF-8"?>
<svg width="12px" height="12px" viewBox="0 0 12 12" version="1.1" xmlns="http://www.w3.org/2000/svg" xmlns:xlink="http://www.w3.org/1999/xlink">
    <!-- Generator: Sketch 47.1 (45422) - http://www.bohemiancoding.com/sketch -->
    <title>Icon/Red/Tel</title>
    <desc>Created with Sketch.</desc>
    <defs></defs>
    <g id="Symbols" stroke="none" stroke-width="1" fill="none" fill-rule="evenodd">
        <g id="Mobile-/-Mast-Full" transform="translate(-107.000000, -18.000000)" fill="#DA262D">
            <g id="Top">
                <g id="Icon-/-Red-/-Tel" transform="translate(107.000000, 18.000000)">
                    <path d="M12,9.47727273 C12,9.63068259 11.9715912,9.83096467 11.9147727,10.078125 C11.8579543,10.3252853 11.7982958,10.5198857 11.7357955,10.6619318 C11.6164767,10.9460241 11.2698892,11.2471575 10.6960227,11.5653409 C10.1619291,11.8551151 9.63352534,12 9.11079545,12 C8.9573856,12 8.80823936,11.9900569 8.66335227,11.9701705 C8.51846518,11.950284 8.35511455,11.914773 8.17329545,11.8636364 C7.99147636,11.8124997 7.85653453,11.771307 7.76846591,11.7400568 C7.68039729,11.7088067 7.52272841,11.6505686 7.29545455,11.5653409 C7.06818068,11.4801132 6.92897753,11.4289774 6.87784091,11.4119318 C6.32101994,11.2130672 5.82386582,10.9772741 5.38636364,10.7045455 C4.65908727,10.2556796 3.90767433,9.64346979 3.13210227,8.86789773 C2.35653021,8.09232567 1.74432043,7.34091273 1.29545455,6.61363636 C1.02272591,6.17613418 0.786932813,5.67898006 0.588068182,5.12215909 C0.571022642,5.07102247 0.51988679,4.93181932 0.434659091,4.70454545 C0.349431392,4.47727159 0.291193338,4.31960271 0.259943182,4.23153409 C0.228693026,4.14346547 0.187500256,4.00852364 0.136363636,3.82670455 C0.085227017,3.64488545 0.0497160085,3.48153482 0.0298295455,3.33664773 C0.00994308239,3.19176064 0,3.0426144 0,2.88920455 C0,2.36647466 0.144884915,1.83807085 0.434659091,1.30397727 C0.7528425,0.730110767 1.05397585,0.383523324 1.33806818,0.264204545 C1.48011435,0.201704233 1.67471467,0.142045739 1.921875,0.0852272727 C2.16903533,0.0284088068 2.36931741,0 2.52272727,0 C2.60227312,0 2.66193162,0.00852264205 2.70170455,0.0255681818 C2.80397778,0.0596592614 2.95454446,0.275566193 3.15340909,0.673295455 C3.2159094,0.78125054 3.30113582,0.934658097 3.40909091,1.13352273 C3.51704599,1.33238736 3.61647682,1.51278328 3.70738636,1.67471591 C3.79829591,1.83664854 3.88636321,1.98863565 3.97159091,2.13068182 C3.98863645,2.1534092 4.03835186,2.22443122 4.12073864,2.34375 C4.20312541,2.46306878 4.26420435,2.56392004 4.30397727,2.64630682 C4.3437502,2.72869359 4.36363636,2.80965869 4.36363636,2.88920455 C4.36363636,3.00284148 4.28267126,3.14488551 4.12073864,3.31534091 C3.95880601,3.48579631 3.78267141,3.64204474 3.59232955,3.78409091 C3.40198768,3.92613707 3.22585308,4.07670375 3.06392045,4.23579545 C2.90198783,4.39488716 2.82102273,4.52556767 2.82102273,4.62784091 C2.82102273,4.67897753 2.83522713,4.74289734 2.86363636,4.81960227 C2.8920456,4.8963072 2.91619308,4.95454526 2.93607955,4.99431818 C2.95596601,5.03409111 2.99573834,5.10227224 3.05539773,5.19886364 C3.11505712,5.29545503 3.14772724,5.34943176 3.15340909,5.36079545 C3.58522943,6.13920844 4.07954267,6.8068154 4.63636364,7.36363636 C5.1931846,7.92045733 5.86079156,8.41477057 6.63920455,8.84659091 C6.65056824,8.85227276 6.70454497,8.88494288 6.80113636,8.94460227 C6.89772776,9.00426166 6.96590889,9.04403399 7.00568182,9.06392045 C7.04545474,9.08380692 7.1036928,9.1079544 7.18039773,9.13636364 C7.25710266,9.16477287 7.32102247,9.17897727 7.37215909,9.17897727 C7.47443233,9.17897727 7.60511284,9.09801217 7.76420455,8.93607955 C7.92329625,8.77414692 8.07386293,8.59801232 8.21590909,8.40767045 C8.35795526,8.21732859 8.51420369,8.04119399 8.68465909,7.87926136 C8.85511449,7.71732874 8.99715852,7.63636364 9.11079545,7.63636364 C9.19034131,7.63636364 9.27130641,7.6562498 9.35369318,7.69602273 C9.43607996,7.73579565 9.53693122,7.79687459 9.65625,7.87926136 C9.77556878,7.96164814 9.8465908,8.01136355 9.86931818,8.02840909 C10.0113643,8.11363679 10.1633515,8.20170409 10.3252841,8.29261364 C10.4872167,8.38352318 10.6676126,8.48295401 10.8664773,8.59090909 C11.0653419,8.69886418 11.2187495,8.7840906 11.3267045,8.84659091 C11.7244338,9.04545554 11.9403407,9.19602222 11.9744318,9.29829545 C11.9914774,9.33806838 12,9.39772687 12,9.47727273 L12,9.47727273 Z" id="Phone"></path>
                </g>
            </g>
        </g>
    </g>
</svg>