<?xml version="1.0" encoding="UTF-8"?>
<svg width="11px" height="15px" viewBox="0 0 11 15" version="1.1" xmlns="http://www.w3.org/2000/svg" xmlns:xlink="http://www.w3.org/1999/xlink">
    <!-- Generator: Sketch 47.1 (45422) - http://www.bohemiancoding.com/sketch -->
    <title>Icon/Teal/Pin-Fill</title>
    <desc>Created with Sketch.</desc>
    <defs></defs>
    <g id="Symbols" stroke="none" stroke-width="1" fill="none" fill-rule="evenodd">
        <g id="Tablet-/-Mast" transform="translate(-378.000000, -13.000000)" fill="#DA262D">
            <g id="Tablet/Masthead-Top-Legacy">
                <g>
                    <g id="Icon/Teal/Pin-Fill" transform="translate(376.000000, 13.000000)">
                        <path d="M12.5,5 C12.5,5.59570312 12.4316406,6.2109375 12.1777344,6.74804688 L8.62304688,14.3066406 C8.41796875,14.7363281 7.96875,15 7.5,15 C7.03125,15 6.58203125,14.7363281 6.38671875,14.3066406 L2.82226563,6.74804688 C2.56835938,6.2109375 2.5,5.59570312 2.5,5 C2.5,2.23632812 4.73632813,0 7.5,0 C10.2636719,0 12.5,2.23632812 12.5,5 Z M10,5 C10,3.62304688 8.87695313,2.5 7.5,2.5 C6.12304688,2.5 5,3.62304688 5,5 C5,6.37695313 6.12304688,7.5 7.5,7.5 C8.87695313,7.5 10,6.37695313 10,5 Z" id="Pin"></path>
                    </g>
                </g>
            </g>
        </g>
    </g>
</svg>