<?xml version="1.0" encoding="UTF-8"?>
<svg width="13px" height="13px" viewBox="0 0 13 13" version="1.1" xmlns="http://www.w3.org/2000/svg" xmlns:xlink="http://www.w3.org/1999/xlink">
    <!-- Generator: Sketch 47.1 (45422) - http://www.bohemiancoding.com/sketch -->
    <title>search</title>
    <desc>Created with Sketch.</desc>
    <defs></defs>
    <g id="Symbols" stroke="none" stroke-width="1" fill="none" fill-rule="evenodd">
        <g id="Tablet-/-Mast" transform="translate(-715.000000, -68.000000)" fill="#999999">
            <g id="icon/white/search">
                <g transform="translate(715.000000, 68.000000)">
                    <path d="M9,5.5 C9,7.4296875 7.4296875,9 5.5,9 C3.5703125,9 2,7.4296875 2,5.5 C2,3.5703125 3.5703125,2 5.5,2 C7.4296875,2 9,3.5703125 9,5.5 Z M13,12 C13,11.734375 12.890625,11.4765625 12.7109375,11.296875 L10.03125,8.6171875 C10.6640625,7.703125 11,6.609375 11,5.5 C11,2.4609375 8.5390625,0 5.5,0 C2.4609375,0 0,2.4609375 0,5.5 C0,8.5390625 2.4609375,11 5.5,11 C6.609375,11 7.703125,10.6640625 8.6171875,10.03125 L11.296875,12.703125 C11.4765625,12.890625 11.734375,13 12,13 C12.546875,13 13,12.546875 13,12 Z" id="search"></path>
                </g>
            </g>
        </g>
    </g>
</svg>