<?xml version="1.0" encoding="UTF-8"?>
<svg width="19px" height="19px" viewBox="0 0 19 19" version="1.1" xmlns="http://www.w3.org/2000/svg" xmlns:xlink="http://www.w3.org/1999/xlink">
    <!-- Generator: Sketch 47.1 (45422) - http://www.bohemiancoding.com/sketch -->
    <title>Phone</title>
    <desc>Created with Sketch.</desc>
    <defs></defs>
    <g id="Symbols" stroke="none" stroke-width="1" fill="none" fill-rule="evenodd">
        <g id="Tablet-/-Sub-Nav" transform="translate(-545.000000, -25.000000)" fill="#DA262D">
            <path d="M564,40.0056818 C564,40.2485808 563.955019,40.5656941 563.865057,40.9570312 C563.775094,41.3483684 563.680635,41.6564856 563.581676,41.881392 C563.392755,42.3312049 562.843991,42.8079994 561.935369,43.3117898 C561.089721,43.7705989 560.253082,44 559.425426,44 C559.182527,44 558.946379,43.9842568 558.716974,43.9527699 C558.48757,43.921283 558.228931,43.8650572 557.941051,43.7840909 C557.653171,43.7031246 557.439513,43.6379027 557.300071,43.5884233 C557.160629,43.5389439 556.910987,43.4467336 556.551136,43.3117898 C556.191286,43.1768459 555.970881,43.0958808 555.889915,43.068892 C555.008282,42.754023 554.221121,42.380684 553.528409,41.9488636 C552.376888,41.2381593 551.187151,40.2688272 549.959162,39.0408381 C548.731173,37.812849 547.761841,36.6231118 547.051136,35.4715909 C546.619316,34.7788791 546.245977,33.9917184 545.931108,33.1100852 C545.904119,33.0291189 545.823154,32.8087139 545.68821,32.4488636 C545.553266,32.0890134 545.461056,31.839371 545.411577,31.699929 C545.362097,31.560487 545.296875,31.3468291 545.215909,31.0589489 C545.134943,30.7710686 545.078717,30.5124301 545.04723,30.2830256 C545.015743,30.053621 545,29.8174728 545,29.5745739 C545,28.7469182 545.229401,27.9102788 545.68821,27.0646307 C546.192001,26.1560087 546.668795,25.6072453 547.118608,25.4183239 C547.343514,25.319365 547.651632,25.2249058 548.042969,25.1349432 C548.434306,25.0449806 548.751419,25 548.994318,25 C549.120266,25 549.214725,25.0134942 549.277699,25.040483 C549.439631,25.0944605 549.678029,25.4363131 549.992898,26.0660511 C550.091857,26.23698 550.226798,26.4798753 550.397727,26.7947443 C550.568656,27.1096133 550.726088,27.3952402 550.870028,27.6516335 C551.013969,27.9080269 551.153408,28.1486731 551.288352,28.3735795 C551.315341,28.4095646 551.394057,28.5220161 551.524503,28.7109375 C551.654949,28.8998589 551.751657,29.0595401 551.814631,29.1899858 C551.877604,29.3204315 551.909091,29.4486263 551.909091,29.5745739 C551.909091,29.754499 551.780896,29.9794021 551.524503,30.2492898 C551.26811,30.5191775 550.98923,30.7665708 550.687855,30.9914773 C550.386481,31.2163837 550.107601,31.4547809 549.851207,31.7066761 C549.594814,31.9585713 549.466619,32.1654821 549.466619,32.3274148 C549.466619,32.4083811 549.48911,32.5095875 549.534091,32.6310369 C549.579072,32.7524864 549.617306,32.8446967 549.648793,32.9076705 C549.68028,32.9706443 549.743252,33.0785977 549.837713,33.2315341 C549.932174,33.3844705 549.983901,33.4699336 549.992898,33.4879261 C550.676613,34.7204134 551.459276,35.7774577 552.340909,36.6590909 C553.222542,37.5407241 554.279587,38.3233867 555.512074,39.0071023 C555.530066,39.0160985 555.61553,39.0678262 555.768466,39.1622869 C555.921402,39.2567476 556.029356,39.3197205 556.09233,39.3512074 C556.155303,39.3826943 556.247514,39.4209278 556.368963,39.4659091 C556.490413,39.5108904 556.591619,39.5333807 556.672585,39.5333807 C556.834518,39.5333807 557.041429,39.4051859 557.293324,39.1487926 C557.545219,38.8923993 557.783616,38.6135195 558.008523,38.3121449 C558.233429,38.0107703 558.480823,37.7318905 558.75071,37.4754972 C559.020598,37.2191038 559.245501,37.0909091 559.425426,37.0909091 C559.551374,37.0909091 559.679568,37.1223955 559.810014,37.1853693 C559.94046,37.2483431 560.100141,37.3450514 560.289062,37.4754972 C560.477984,37.6059429 560.590435,37.684659 560.62642,37.7116477 C560.851327,37.8465916 561.091973,37.9860315 561.348366,38.1299716 C561.60476,38.2739117 561.890387,38.4313438 562.205256,38.6022727 C562.520125,38.7732016 562.76302,38.9081434 562.933949,39.0071023 C563.563687,39.3219713 563.90554,39.5603685 563.959517,39.7223011 C563.986506,39.7852749 564,39.8797342 564,40.0056818 L564,40.0056818 Z" id="Phone"></path>
        </g>
    </g>
</svg>