<?xml version="1.0" encoding="UTF-8"?>
<svg width="24px" height="24px" viewBox="0 0 24 24" version="1.1" xmlns="http://www.w3.org/2000/svg" xmlns:xlink="http://www.w3.org/1999/xlink">
    <!-- Generator: Sketch 47.1 (45422) - http://www.bohemiancoding.com/sketch -->
    <title>Icon / Red / TV</title>
    <desc>Created with Sketch.</desc>
    <defs></defs>
    <g id="Symbols" stroke="none" stroke-width="1" fill="none" fill-rule="evenodd">
        <g id="Mobile-/-Mast-Full" transform="translate(-135.000000, -58.000000)" fill="#DA262D">
            <g id="Icon-/-Red-/-TV" transform="translate(135.000000, 58.000000)">
                <path d="M12,24 C5.372583,24 0,18.627417 0,12 C0,5.372583 5.372583,0 12,0 C18.627417,0 24,5.372583 24,12 C24,18.627417 18.627417,24 12,24 Z M19.0769231,7.8974359 C19.0769231,7.27692308 18.5692308,6.76923077 17.9487179,6.76923077 L6.66666667,6.76923077 C6.04615385,6.76923077 5.53846154,7.27692308 5.53846154,7.8974359 L5.53846154,14.6666667 C5.53846154,15.2871795 6.04615385,15.7948718 6.66666667,15.7948718 L11.8564103,15.7948718 L11.8564103,16.6974359 L9.37435897,16.6974359 C9.2474359,16.6974359 9.14871795,16.7961538 9.14871795,16.9230769 L9.14871795,17.374359 C9.14871795,17.5012821 9.2474359,17.6 9.37435897,17.6 L15.2410256,17.6 C15.3679487,17.6 15.4666667,17.5012821 15.4666667,17.374359 L15.4666667,16.9230769 C15.4666667,16.7961538 15.3679487,16.6974359 15.2410256,16.6974359 L12.7589744,16.6974359 L12.7589744,15.7948718 L17.9487179,15.7948718 C18.5692308,15.7948718 19.0769231,15.2871795 19.0769231,14.6666667 L19.0769231,7.8974359 Z M18.174359,14.6666667 C18.174359,14.7865385 18.0685897,14.8923077 17.9487179,14.8923077 L6.66666667,14.8923077 C6.54679487,14.8923077 6.44102564,14.7865385 6.44102564,14.6666667 L6.44102564,7.8974359 C6.44102564,7.7775641 6.54679487,7.67179487 6.66666667,7.67179487 L17.9487179,7.67179487 C18.0685897,7.67179487 18.174359,7.7775641 18.174359,7.8974359 L18.174359,14.6666667 Z"></path>
            </g>
        </g>
    </g>
</svg>