<?xml version="1.0" encoding="UTF-8"?>
<svg width="15px" height="15px" viewBox="0 0 15 15" version="1.1" xmlns="http://www.w3.org/2000/svg" xmlns:xlink="http://www.w3.org/1999/xlink">
    <!-- Generator: Sketch 47.1 (45422) - http://www.bohemiancoding.com/sketch -->
    <title>Icon/Teal/User-Fill</title>
    <desc>Created with Sketch.</desc>
    <defs></defs>
    <g id="Symbols" stroke="none" stroke-width="1" fill="none" fill-rule="evenodd">
        <g id="Tablet-/-Mast" transform="translate(-666.000000, -13.000000)" fill="#DA262D">
            <g id="Tablet/Masthead-Top-Legacy">
                <g>
                    <g id="Icon/Teal/User-Fill" transform="translate(666.000000, 13.000000)">
                        <path d="M11.125,3.75 C11.125,5.8203125 9.4453125,7.5 7.375,7.5 C5.3046875,7.5 3.625,5.8203125 3.625,3.75 C3.625,1.6796875 5.3046875,0 7.375,0 C9.4453125,0 11.125,1.6796875 11.125,3.75 Z M14.25,12.4707031 C14.25,14.0527344 13.1953125,15 11.6425781,15 L3.10742187,15 C1.5546875,15 0.5,14.0527344 0.5,12.4707031 C0.5,10.2636719 1.01757812,6.875 3.87890625,6.875 C4.18164062,6.875 5.4609375,8.23242188 7.375,8.23242188 C9.2890625,8.23242188 10.5683594,6.875 10.8710937,6.875 C13.7324219,6.875 14.25,10.2636719 14.25,12.4707031 Z" id="User"></path>
                    </g>
                </g>
            </g>
        </g>
    </g>
</svg>