<?xml version="1.0" encoding="UTF-8"?>
<svg width="16px" height="16px" viewBox="0 0 16 16" version="1.1" xmlns="http://www.w3.org/2000/svg" xmlns:xlink="http://www.w3.org/1999/xlink">
    <!-- Generator: Sketch 47.1 (45422) - http://www.bohemiancoding.com/sketch -->
    <title>Phone</title>
    <desc>Created with Sketch.</desc>
    <defs></defs>
    <g id="Symbols" stroke="none" stroke-width="1" fill="none" fill-rule="evenodd">
        <g id="Tablet-/-Install-Body-Urgency" transform="translate(-285.000000, -75.000000)" fill="#FFFFFF">
            <g id="Content">
                <g transform="translate(0.000000, 40.000000)">
                    <g id="Tel" transform="translate(285.000000, 32.000000)">
                        <path d="M16,15.6363636 C16,15.5568182 16,15.4772727 15.9659091,15.3977273 C15.8863636,15.1590909 15.3295455,14.9090909 15.1022727,14.7954545 C14.4545455,14.4318182 13.7954545,14.0795455 13.1590909,13.7045455 C12.8636364,13.5227273 12.5,13.1818182 12.1477273,13.1818182 C11.4545455,13.1818182 10.4431818,15.2386364 9.82954545,15.2386364 C9.52272727,15.2386364 9.125,14.9545455 8.85227273,14.7954545 C6.78409091,13.6477273 5.35227273,12.2159091 4.20454545,10.1477273 C4.04545455,9.875 3.76136364,9.47727273 3.76136364,9.17045455 C3.76136364,8.55681818 5.81818182,7.54545455 5.81818182,6.85227273 C5.81818182,6.5 5.47727273,6.13636364 5.29545455,5.84090909 C4.92045455,5.20454545 4.56818182,4.54545455 4.20454545,3.89772727 C4.09090909,3.67045455 3.84090909,3.11363636 3.60227273,3.03409091 C3.52272727,3 3.44318182,3 3.36363636,3 C2.95454545,3 2.15909091,3.18181818 1.78409091,3.35227273 C1.22727273,3.59090909 0.863636364,4.22727273 0.579545455,4.73863636 C0.215909091,5.40909091 0,6.09090909 0,6.85227273 C0,7.90909091 0.431818182,8.86363636 0.784090909,9.82954545 C1.03409091,10.5227273 1.34090909,11.1931818 1.72727273,11.8181818 C2.92045455,13.75 5.25,16.0795455 7.18181818,17.2727273 C7.80681818,17.6590909 8.47727273,17.9659091 9.17045455,18.2159091 C10.1363636,18.5681818 11.0909091,19 12.1477273,19 C12.9090909,19 13.5909091,18.7840909 14.2613636,18.4204545 C14.7727273,18.1363636 15.4090909,17.7727273 15.6477273,17.2159091 C15.8181818,16.8409091 16,16.0454545 16,15.6363636 L16,15.6363636 Z" id="Phone"></path>
                    </g>
                </g>
            </g>
        </g>
    </g>
</svg>