<?xml version="1.0" encoding="UTF-8"?>
<svg width="16px" height="16px" viewBox="0 0 16 16" version="1.1" xmlns="http://www.w3.org/2000/svg" xmlns:xlink="http://www.w3.org/1999/xlink">
    <!-- Generator: Sketch 47.1 (45422) - http://www.bohemiancoding.com/sketch -->
    <title>Icon / White / Tel</title>
    <desc>Created with Sketch.</desc>
    <defs></defs>
    <g id="Symbols" stroke="none" stroke-width="1" fill="none" fill-rule="evenodd">
        <g id="UI-/-Button-Primary-(Cart)" transform="translate(-64.000000, -15.000000)" fill="#FFFFFF">
            <g id="Group" transform="translate(64.000000, 14.000000)">
                <g id="Icon-/-White-/-Cart" transform="translate(0.000000, 1.000000)">
                    <path d="M6.15384615,13.8461538 C6.15384615,14.2211557 6.0320525,14.5456717 5.78846154,14.8197115 C5.54487058,15.0937514 5.25641192,15.2307692 4.92307692,15.2307692 C4.58974192,15.2307692 4.30128327,15.0937514 4.05769231,14.8197115 C3.81410135,14.5456717 3.69230769,14.2211557 3.69230769,13.8461538 C3.69230769,13.471152 3.81410135,13.146636 4.05769231,12.8725962 C4.30128327,12.5985563 4.58974192,12.4615385 4.92307692,12.4615385 C5.25641192,12.4615385 5.54487058,12.5985563 5.78846154,12.8725962 C6.0320525,13.146636 6.15384615,13.471152 6.15384615,13.8461538 Z M14.7692308,13.8461538 C14.7692308,14.2211557 14.6474371,14.5456717 14.4038462,14.8197115 C14.1602552,15.0937514 13.8717965,15.2307692 13.5384615,15.2307692 C13.2051265,15.2307692 12.9166679,15.0937514 12.6730769,14.8197115 C12.429486,14.5456717 12.3076923,14.2211557 12.3076923,13.8461538 C12.3076923,13.471152 12.429486,13.146636 12.6730769,12.8725962 C12.9166679,12.5985563 13.2051265,12.4615385 13.5384615,12.4615385 C13.8717965,12.4615385 14.1602552,12.5985563 14.4038462,12.8725962 C14.6474371,13.146636 14.7692308,13.471152 14.7692308,13.8461538 Z M16,2.07692308 L16,7.61538462 C16,7.7884624 15.9471159,7.94170606 15.8413462,8.07512019 C15.7355764,8.20853432 15.60577,8.28605758 15.4519231,8.30769231 L5.41346154,9.62740385 C5.49679529,10.0600983 5.53846154,10.3124996 5.53846154,10.3846154 C5.53846154,10.5000006 5.46153923,10.7307675 5.30769231,11.0769231 L14.1538462,11.0769231 C14.3205137,11.0769231 14.464743,11.145432 14.5865385,11.2824519 C14.7083339,11.4194718 14.7692308,11.5817298 14.7692308,11.7692308 C14.7692308,11.9567317 14.7083339,12.1189897 14.5865385,12.2560096 C14.464743,12.3930295 14.3205137,12.4615385 14.1538462,12.4615385 L4.30769231,12.4615385 C4.14102481,12.4615385 3.99679548,12.3930295 3.875,12.2560096 C3.75320452,12.1189897 3.69230769,11.9567317 3.69230769,11.7692308 C3.69230769,11.6899034 3.71794846,11.5763229 3.76923077,11.4284856 C3.82051308,11.2806483 3.87179462,11.1508419 3.92307692,11.0390625 C3.97435923,10.9272831 4.0432688,10.7830538 4.12980769,10.6063702 C4.21634659,10.4296866 4.26602558,10.3233175 4.27884615,10.2872596 L2.57692308,1.38461538 L0.615384615,1.38461538 C0.448717115,1.38461538 0.304487788,1.31610645 0.182692308,1.17908654 C0.0608968269,1.04206662 0,0.87980863 0,0.692307692 C0,0.504806755 0.0608968269,0.342548762 0.182692308,0.205528846 C0.304487788,0.0685089303 0.448717115,-1.13686838e-13 0.615384615,-1.13686838e-13 L3.07692308,-1.13686838e-13 C3.17948769,-1.13686838e-13 3.27083293,0.0234372656 3.35096154,0.0703125 C3.43109014,0.117187734 3.49358952,0.173076599 3.53846154,0.237980769 C3.58333356,0.30288494 3.62499981,0.391225403 3.66346154,0.503004808 C3.70192327,0.614784213 3.72756404,0.708533275 3.74038462,0.784254808 C3.75320519,0.85997634 3.77083322,0.966345469 3.79326923,1.10336538 C3.81570524,1.2403853 3.83012817,1.33413436 3.83653846,1.38461538 L15.3846154,1.38461538 C15.5512829,1.38461538 15.6955122,1.45312431 15.8173077,1.59014423 C15.9391032,1.72716415 16,1.88942214 16,2.07692308 Z" id="Cart"></path>
                </g>
            </g>
        </g>
    </g>
</svg>